<svg xmlns="http://www.w3.org/2000/svg" viewBox="0 0 48 48"><defs><style>.cls-3{fill:#9dcc6b}.cls-4{fill:#b5e08c}.cls-5{fill:#374f68}.cls-6{fill:#425b72}.cls-7{fill:#ffde76}.cls-8{fill:#fc6}</style></defs><g id="_19._Worldwide_Education" data-name="19. Worldwide Education"><path d="M38 33a14 14 0 0 1-14 14c-13.18 0-19-16.59-8.84-24.84A14 14 0 0 1 38 33z" style="fill:#9fdbf3"/><path d="M38 33a13.88 13.88 0 0 1-3.16 8.84A14 14 0 0 1 12 31c0-17.6 26-15 26 2z" style="fill:#b2e5fb"/><path className"cls-3" d="M20.47 28.81c-.83.51-2.38.14-3.17.54-1.54.76-.28 3.49-1.82 4.26-2.51 1.27-4.17-1.52-4.87-4.26l-.07-.2a13.72 13.72 0 0 1 .83-2.15c.25.27.53.32 1.1.45a42.69 42.69 0 0 0 8 1.36z"/><path className"cls-4" d="M12.47 27.41c1 .29 2.08.53 3.14.74-.42 1.12.05 2.87-1.13 3.46A1.71 1.71 0 0 1 12 29.94a13.93 13.93 0 0 1 .47-2.53z"/><path className"cls-3" d="M19.13 36a4.76 4.76 0 0 1 2.44 1.83c.6 1.22 2.47 0 3 1.22S24.22 41 23 41.22a2 2 0 0 0-1.57 1.93.61.61 0 0 1-1.11.23 4.85 4.85 0 0 1-.61-1.25c-.61-1.83-2.5-2-3-3s-.01-3.7 2.42-3.13z"/><path className"cls-3" d="M23 41.22a2.06 2.06 0 0 0-1.57 1.93.61.61 0 0 1-1.11.23 4.85 4.85 0 0 1-.61-1.25c-.61-1.83-2.5-2-3-3a2.33 2.33 0 0 1 .78-2.93c1.38-.74 3.54.62 4.09 1.71s2.47 0 3 1.19c.02.2 1 1.56-1.58 2.12zM37.67 30a5.91 5.91 0 0 0-2.78 1.87c-1.09 1.22-.46 2.82-.54 4.84 0 4.19-5.5 5-3.65.42.5-1.26.6-3-1.22-3.65s-3.65.61-4.26-2.43a2.29 2.29 0 0 1 .65-2.11 44.13 44.13 0 0 0 10.31-1.67 1 1 0 0 0 .45-.27 14 14 0 0 1 1.04 3z"/><path className"cls-4" d="M37.67 30a5.91 5.91 0 0 0-2.78 1.87c-1.31 1.69-.06 4-.76 6.27-1.78.58-2.13-1.28-1.43-3 .5-1.26.6-3-1.22-3.65s-3.75.65-4.29-2.61a44.63 44.63 0 0 0 9-1.6 1 1 0 0 0 .45-.27A14 14 0 0 1 37.67 30zM23 41.22a1.73 1.73 0 0 0-.76.36s-.71.11-.92-.2a4.85 4.85 0 0 1-.61-1.25c-.73-2.19-3.2-1.82-3.26-4a2.27 2.27 0 0 1 1.68-.13c2.28.76 2.2 1.9 2.88 2.29s1.29.07 1.91.21a.9.9 0 0 1 .69.55c.61 1.36-.39 1.95-1.61 2.17z"/><path className"cls-5" d="m35.26 13.08 1.63 13.07a1 1 0 0 1-.71 1.09 44 44 0 0 1-24.36 0 1 1 0 0 1-.71-1.09l1.63-13.07z"/><path className"cls-6" d="M36.85 25.84a44 44 0 0 1-20.27-.13 3 3 0 0 1-2.26-3.29l1.17-9.34h19.77z"/><path className"cls-5" d="m47 9-23 8L1 9l23-8z"/><path className"cls-6" d="M42.69 7.5 24 14 5.31 7.5 24 1l18.69 6.5z"/><path className"cls-7" d="M5 18v-7.26a1 1 0 0 1 .9-1l16-1.56a1 1 0 0 1 .2 2L7 11.65V18a1 1 0 0 1-2 0z"/><path className"cls-8" d="M8 20v4H4v-4a2 2 0 0 1 4 0z"/><path className"cls-7" d="M8 20v3a3 3 0 0 1-3-3 4.1 4.1 0 0 1 .18-1.82A2 2 0 0 1 8 20z"/><path className"cls-8" d="M26 9a2 2 0 1 1-2.82-1.82A2 2 0 0 1 26 9z"/><path className"cls-7" d="M25.82 9.82a2 2 0 0 1-2.64-2.64 2 2 0 0 1 2.64 2.64z"/></g></svg>